<svg width="17" height="18" viewBox="0 0 17 18" fill="none" xmlns="http://www.w3.org/2000/svg">
<path d="M10.1921 4.48513C9.857 4.42323 9.54927 4.63706 9.48547 4.96414C9.42168 5.29122 9.63619 5.61056 9.96215 5.67457C10.9435 5.86589 11.7013 6.62556 11.8934 7.61031V7.61102C11.9481 7.89449 12.1976 8.10058 12.485 8.10058C12.5236 8.10058 12.5621 8.09706 12.6014 8.09003C12.9274 8.02461 13.1419 7.70598 13.0781 7.37819C12.7914 5.90739 11.6593 4.77141 10.1921 4.48513" fill="#D0D2DA"/>
<path d="M10.1483 2.03422C9.99124 2.01171 9.83352 2.05814 9.70804 2.15802C9.57906 2.25931 9.49844 2.40562 9.48092 2.56951C9.44377 2.90081 9.6828 3.20045 10.0137 3.23773C12.2954 3.49236 14.0689 5.26984 14.3255 7.55869C14.3598 7.86537 14.6171 8.09679 14.9241 8.09679C14.9473 8.09679 14.9697 8.09538 14.9928 8.09257C15.1534 8.07498 15.2964 7.9955 15.3973 7.86889C15.4975 7.74228 15.5431 7.58472 15.5249 7.42364C15.2052 4.56785 12.995 2.35145 10.1483 2.03422" fill="#D0D2DA"/>
<path fill-rule="evenodd" clip-rule="evenodd" d="M7.80836 9.75186C10.6162 12.5589 11.2532 9.31147 13.0409 11.098C14.7645 12.821 15.7551 13.1662 13.5714 15.3493C13.2978 15.5692 11.5599 18.2138 5.45238 12.1079C-0.655934 6.00133 1.98717 4.26165 2.20706 3.9882C4.39604 1.79906 4.73531 2.79543 6.45885 4.51848C8.24661 6.30575 5.00053 6.94481 7.80836 9.75186Z" fill="#D0D2DA"/>
</svg>
