<svg width="13" height="16" viewBox="0 0 13 16" fill="none" xmlns="http://www.w3.org/2000/svg">
<path fill-rule="evenodd" clip-rule="evenodd" d="M3.88795 11.0701H7.67914C7.96487 11.0701 8.20182 10.8308 8.20182 10.5422C8.20182 10.2536 7.96487 10.0214 7.67914 10.0214H3.88795C3.60222 10.0214 3.36527 10.2536 3.36527 10.5422C3.36527 10.8308 3.60222 11.0701 3.88795 11.0701ZM6.24351 6.50196H3.88795C3.60222 6.50196 3.36527 6.74128 3.36527 7.02987C3.36527 7.31846 3.60222 7.55074 3.88795 7.55074H6.24351C6.52924 7.55074 6.76619 7.31846 6.76619 7.02987C6.76619 6.74128 6.52924 6.50196 6.24351 6.50196ZM11.217 5.88649C11.3808 5.8846 11.5591 5.88254 11.7212 5.88254C11.8954 5.88254 12.0348 6.02332 12.0348 6.19929V11.8585C12.0348 13.6041 10.634 15.0189 8.90569 15.0189H3.35829C1.54633 15.0189 0.0688782 13.5337 0.0688782 11.7036V4.11581C0.0688782 2.37019 1.47663 0.941315 3.21194 0.941315H6.93343C7.11463 0.941315 7.25401 1.08913 7.25401 1.2651V3.53159C7.25401 4.81969 8.30635 5.8755 9.58169 5.88254C9.87959 5.88254 10.1422 5.88477 10.372 5.88672C10.5508 5.88823 10.7098 5.88958 10.8501 5.88958C10.9493 5.88958 11.0779 5.8881 11.217 5.88649ZM11.4091 4.85912C10.8363 4.86123 10.161 4.85912 9.67523 4.85419C8.90445 4.85419 8.26956 4.21296 8.26956 3.43447V1.57905C8.26956 1.27567 8.63405 1.12504 8.84242 1.34395C9.21964 1.7401 9.73804 2.28466 10.2541 2.82671C10.7686 3.36721 11.2807 3.90521 11.6482 4.29109C11.8517 4.50436 11.7025 4.85842 11.4091 4.85912Z" fill="#FF6A00"/>
</svg>
