<svg width="14" height="15" viewBox="0 0 14 15" fill="none" xmlns="http://www.w3.org/2000/svg">
<path fill-rule="evenodd" clip-rule="evenodd" d="M4.13285 0.743027H10.0321C12.2063 0.743027 13.417 1.99593 13.417 4.14276V11.4138C13.417 13.5958 12.2063 14.8206 10.0321 14.8206H4.13285C1.99306 14.8206 0.747192 13.5958 0.747192 11.4138V4.14276C0.747192 1.99593 1.99306 0.743027 4.13285 0.743027ZM4.32293 4.0231V4.01606H6.42682C6.7302 4.01606 6.97655 4.26242 6.97655 4.56438C6.97655 4.87479 6.7302 5.12115 6.42682 5.12115H4.32293C4.01956 5.12115 3.77391 4.87479 3.77391 4.57212C3.77391 4.26945 4.01956 4.0231 4.32293 4.0231ZM4.32293 8.30268H9.84134C10.144 8.30268 10.3904 8.05632 10.3904 7.75365C10.3904 7.45098 10.144 7.20392 9.84134 7.20392H4.32293C4.01956 7.20392 3.77391 7.45098 3.77391 7.75365C3.77391 8.05632 4.01956 8.30268 4.32293 8.30268ZM4.32291 11.5194H9.84132C10.1222 11.4912 10.334 11.2512 10.334 10.9704C10.334 10.6818 10.1222 10.4425 9.84132 10.4143H4.32291C4.11175 10.3932 3.90762 10.4917 3.795 10.6747C3.68238 10.8507 3.68238 11.083 3.795 11.266C3.90762 11.442 4.11175 11.5476 4.32291 11.5194Z" fill="#CCCCCC"/>
</svg>
