<svg width="20" height="21" viewBox="0 0 20 21" fill="none" xmlns="http://www.w3.org/2000/svg">
<path d="M17.1466 3.51609L11.2866 0.906094C10.4266 0.526094 9.12663 0.526094 8.26663 0.906094L2.40663 3.51609C0.926627 4.17609 0.706627 5.07609 0.706627 5.55609C0.706627 6.03609 0.926627 6.93609 2.40663 7.59609L8.26663 10.2061C8.69663 10.3961 9.23663 10.4961 9.77663 10.4961C10.3166 10.4961 10.8566 10.3961 11.2866 10.2061L17.1466 7.59609C18.6266 6.93609 18.8466 6.03609 18.8466 5.55609C18.8466 5.07609 18.6366 4.17609 17.1466 3.51609Z" fill="#FD2254"/>
<path d="M9.77663 15.6661C9.39663 15.6661 9.01663 15.5861 8.66663 15.4361L1.92663 12.4361C0.896626 11.9761 0.0966263 10.7461 0.0966263 9.6161C0.0966263 9.2061 0.426626 8.8761 0.836626 8.8761C1.24663 8.8761 1.57663 9.2061 1.57663 9.6161C1.57663 10.1561 2.02663 10.8561 2.52663 11.0761L9.26663 14.0761C9.58663 14.2161 9.95663 14.2161 10.2766 14.0761L17.0166 11.0761C17.5166 10.8561 17.9666 10.1661 17.9666 9.6161C17.9666 9.2061 18.2966 8.8761 18.7066 8.8761C19.1166 8.8761 19.4466 9.2061 19.4466 9.6161C19.4466 10.7361 18.6466 11.9761 17.6166 12.4361L10.8766 15.4361C10.5366 15.5861 10.1566 15.6661 9.77663 15.6661Z" fill="#FD2254"/>
<path d="M9.77663 20.6261C9.39663 20.6261 9.01663 20.5461 8.66663 20.3961L1.92663 17.3961C0.816626 16.9061 0.0966263 15.7961 0.0966263 14.5761C0.0966263 14.1661 0.426626 13.8361 0.836626 13.8361C1.24663 13.8361 1.57663 14.1661 1.57663 14.5761C1.57663 15.2061 1.94663 15.7761 2.52663 16.0361L9.26663 19.0361C9.58663 19.1761 9.95663 19.1761 10.2766 19.0361L17.0166 16.0361C17.5866 15.7861 17.9666 15.2061 17.9666 14.5761C17.9666 14.1661 18.2966 13.8361 18.7066 13.8361C19.1166 13.8361 19.4466 14.1661 19.4466 14.5761C19.4466 15.7961 18.7266 16.8961 17.6166 17.3961L10.8766 20.3961C10.5366 20.5461 10.1566 20.6261 9.77663 20.6261Z" fill="#FD2254"/>
</svg>
