<svg width="27" height="26" viewBox="0 0 27 26" fill="none" xmlns="http://www.w3.org/2000/svg">
<path d="M20.1024 9.74929L18.879 10.9727L16.4159 8.50951L17.6393 7.28615C17.9841 6.94131 18.4275 6.7771 18.8708 6.7771C19.3142 6.7771 19.7576 6.94131 20.1024 7.28615C20.7839 7.96762 20.7839 9.06782 20.1024 9.74929Z" fill="#292D32"/>
<path d="M18.3041 11.5559L9.42859 20.4232C8.74712 21.1047 7.64692 21.1047 6.96545 20.4232C6.28398 19.7418 6.28398 18.6416 6.96545 17.9601L15.841 9.09277L18.3041 11.5559Z" fill="#292D32"/>
<path d="M12.262 6.46639L12.5986 5.32514C12.6315 5.2184 12.5986 5.10345 12.5248 5.02135C12.4509 4.93924 12.3195 4.9064 12.2128 4.93924L11.0715 5.27587L9.93024 4.93924C9.8235 4.9064 9.70856 4.93924 9.62645 5.01314C9.54435 5.09524 9.51972 5.21019 9.55256 5.31693L9.88098 6.46639L9.54435 7.60765C9.5115 7.71439 9.54435 7.82933 9.61824 7.91144C9.70035 7.99354 9.81529 8.01817 9.92203 7.98533L11.0715 7.65691L12.2128 7.99354C12.2456 8.00175 12.2702 8.00996 12.3031 8.00996C12.3852 8.00996 12.4591 7.97712 12.5248 7.91965C12.6069 7.83754 12.6315 7.7226 12.5986 7.61586L12.262 6.46639Z" fill="#292D32"/>
<path d="M8.97784 11.3924L9.31447 10.2512C9.34731 10.1444 9.31447 10.0295 9.24057 9.94737C9.15847 9.86527 9.04352 9.84064 8.93678 9.87348L7.78732 10.2019L6.64606 9.86527C6.53932 9.83243 6.42438 9.86527 6.34227 9.93916C6.26017 10.0213 6.23554 10.1362 6.26838 10.243L6.5968 11.3924L6.26017 12.5337C6.22733 12.6404 6.26017 12.7554 6.33406 12.8375C6.41617 12.9196 6.53111 12.9442 6.63785 12.9114L7.77911 12.5747L8.92036 12.9114C8.94499 12.9196 8.97784 12.9196 9.01068 12.9196C9.09278 12.9196 9.16668 12.8867 9.23236 12.8293C9.31447 12.7471 9.3391 12.6322 9.30626 12.5255L8.97784 11.3924Z" fill="#292D32"/>
<path d="M21.293 15.4974L21.6296 14.3561C21.6624 14.2494 21.6296 14.1344 21.5557 14.0523C21.4736 13.9702 21.3586 13.9456 21.2519 13.9784L20.1107 14.3151L18.9694 13.9784C18.8627 13.9456 18.7477 13.9784 18.6656 14.0523C18.5835 14.1344 18.5589 14.2494 18.5917 14.3561L18.9283 15.4974L18.5917 16.6386C18.5589 16.7454 18.5917 16.8603 18.6656 16.9424C18.7477 17.0245 18.8627 17.0492 18.9694 17.0163L20.1107 16.6797L21.2519 17.0163C21.2765 17.0245 21.3094 17.0245 21.3422 17.0245C21.4243 17.0245 21.4982 16.9917 21.5639 16.9342C21.646 16.8521 21.6706 16.7372 21.6378 16.6304L21.293 15.4974Z" fill="#292D32"/>
<circle cx="13.4999" cy="12.9999" r="12.4999" stroke="#4E4E4E"/>
</svg>
