<svg width="18" height="18" viewBox="0 0 18 18" fill="none" xmlns="http://www.w3.org/2000/svg">
<path d="M6.6825 15.5024C6.54 15.5024 6.3975 15.4499 6.285 15.3374C6.0675 15.1199 6.0675 14.7599 6.285 14.5424L11.175 9.65239C11.535 9.29239 11.535 8.70739 11.175 8.34739L6.285 3.45739C6.0675 3.23989 6.0675 2.87989 6.285 2.66239C6.5025 2.44489 6.8625 2.44489 7.08 2.66239L11.97 7.55239C12.3525 7.93489 12.57 8.45239 12.57 8.99989C12.57 9.54739 12.36 10.0649 11.97 10.4474L7.08 15.3374C6.9675 15.4424 6.825 15.5024 6.6825 15.5024Z" fill="#292D32"/>
</svg>
