<svg width="25" height="24" viewBox="0 0 25 24" fill="none" xmlns="http://www.w3.org/2000/svg">
<path d="M10.1993 19.039L10.1993 19.039L10.1956 19.0343C10.0528 18.8494 9.85354 18.7065 9.66111 18.6103C9.46956 18.5145 9.23469 18.44 9 18.44H7.5C5.01418 18.44 3 16.4319 3 13.96V12.96V6.98C3 4.5081 5.01418 2.5 7.5 2.5H17.5C19.9858 2.5 22 4.5081 22 6.98V13.96C22 16.4319 19.9858 18.44 17.5 18.44H16C15.5314 18.44 15.085 18.6649 14.8019 19.0375L14.8007 19.039L13.3007 21.029L13.3 21.03C13.0506 21.3626 12.7559 21.49 12.5 21.49C12.2441 21.49 11.9494 21.3626 11.7 21.03L11.6993 21.029L10.1993 19.039ZM7 11C7 11.8229 7.6606 12.5 8.5 12.5C9.3394 12.5 10 11.8229 10 11C10 10.1739 9.32614 9.5 8.5 9.5C7.67386 9.5 7 10.1739 7 11ZM11 11C11 11.8229 11.6606 12.5 12.5 12.5C13.3394 12.5 14 11.8229 14 11C14 10.1739 13.3261 9.5 12.5 9.5C11.6739 9.5 11 10.1739 11 11ZM15 11C15 11.8229 15.6606 12.5 16.5 12.5C17.3394 12.5 18 11.8229 18 11C18 10.1739 17.3261 9.5 16.5 9.5C15.6739 9.5 15 10.1739 15 11Z" stroke="black"/>
</svg>
