<svg xmlns="http://www.w3.org/2000/svg" viewBox="0 0 32 32"><defs><style>.cls-1{fill:#8fa5a5;}.cls-2{fill:#263f52;}.cls-3{fill:#009ae0;}.cls-4{fill:#0081bd;}.cls-5{fill:#2d4a60;}.cls-6{fill:#eaeff0;}</style></defs><title>Electronic Store</title><g id="Electronic_Store" data-name="Electronic Store"><rect class="cls-1" x="13" y="23" width="6" height="4" id="id_135"></rect><path class="cls-2" d="M24,28H8a1,1,0,0,1,0-2H24a1,1,0,0,1,0,2Z" id="id_136"></path><rect class="cls-3" x="5" y="5" width="22" height="18" rx="2" id="id_137"></rect><path class="cls-4" d="M17,20H14a1,1,0,0,1,0-2h3a1,1,0,0,1,0,2Z" id="id_138"></path><path class="cls-2" d="M25,24H7a3,3,0,0,1-3-3V7A3,3,0,0,1,7,4H25a3,3,0,0,1,3,3V21A3,3,0,0,1,25,24ZM7,6A1,1,0,0,0,6,7V21a1,1,0,0,0,1,1H25a1,1,0,0,0,1-1V7a1,1,0,0,0-1-1Z" id="id_139"></path><path class="cls-5" d="M27,28H20a3,3,0,0,1-3-3V14a3,3,0,0,1,3-3h7a3,3,0,0,1,3,3V25A3,3,0,0,1,27,28Z" id="id_140"></path><rect class="cls-6" x="19" y="13" width="9" height="13" rx="1" id="id_141"></rect><rect class="cls-6" x="2" y="14" width="9" height="14" rx="2" id="id_142"></rect><path class="cls-5" d="M2,24v2a2,2,0,0,0,2,2H9a2,2,0,0,0,2-2V24Z" id="id_143"></path><circle class="cls-1" cx="23.5" cy="24" r="1" id="id_144"></circle><circle class="cls-6" cx="6.5" cy="26" r="1" id="id_145"></circle></g></svg>