<svg width="16" height="17" viewBox="0 0 16 17" fill="none" xmlns="http://www.w3.org/2000/svg">
<g clip-path="url(#clip0_54416_509)">
<path d="M11.96 12.46C10.8204 13.3286 9.43276 13.8099 8.00002 13.8333C3.33335 13.8333 0.666687 8.49998 0.666687 8.49998C1.49595 6.95457 2.64611 5.60438 4.04002 4.53998M6.60002 3.32664C7.05891 3.21923 7.52873 3.16554 8.00002 3.16664C12.6667 3.16664 15.3334 8.49998 15.3334 8.49998C14.9287 9.25705 14.4461 9.9698 13.8934 10.6266M9.41335 9.91331C9.23026 10.1098 9.00945 10.2674 8.76412 10.3767C8.51879 10.486 8.25396 10.5448 7.98541 10.5496C7.71687 10.5543 7.45013 10.5049 7.20109 10.4043C6.95206 10.3037 6.72583 10.154 6.53592 9.96408C6.346 9.77416 6.19628 9.54794 6.09569 9.2989C5.9951 9.04987 5.9457 8.78312 5.95044 8.51458C5.95518 8.24604 6.01396 7.98121 6.12327 7.73587C6.23258 7.49054 6.39019 7.26974 6.58669 7.08664" stroke="#667085" stroke-width="2" stroke-linecap="round" stroke-linejoin="round"/>
<path d="M0.666687 1.16663L15.3334 15.8333" stroke="#667085" stroke-width="2" stroke-linecap="round" stroke-linejoin="round"/>
</g>
<defs>
<clipPath id="clip0_54416_509">
<rect width="16" height="16" fill="white" transform="translate(0 0.5)"/>
</clipPath>
</defs>
</svg>
