<svg width="72" height="68" viewBox="0 0 72 68" fill="none" xmlns="http://www.w3.org/2000/svg">
<rect x="0.5" y="0.5" width="71" height="67" rx="5.5" fill="white"/>
<g clip-path="url(#clip0_54314_25651)">
<path d="M54 34.1096C54 24.1691 45.9405 16.1096 36 16.1096C26.0595 16.1096 18 24.1691 18 34.1096C18 43.0946 24.582 50.5406 33.1875 51.8906V39.3131H28.617V34.1081H33.1875V30.1451C33.1875 25.6346 35.8755 23.1416 39.987 23.1416C41.955 23.1416 44.016 23.4941 44.016 23.4941V27.9236H41.745C39.5085 27.9236 38.811 29.3111 38.811 30.7346V34.1096H43.803L43.005 39.3146H38.811V51.8921C47.418 50.5406 54 43.0931 54 34.1096Z" fill="#1877F2"/>
</g>
<rect x="0.5" y="0.5" width="71" height="67" rx="5.5" stroke="#EBE9F1"/>
<defs>
<clipPath id="clip0_54314_25651">
<rect width="36" height="36" fill="white" transform="translate(18 16)"/>
</clipPath>
</defs>
</svg>
