<svg width="52" height="48" viewBox="0 0 52 48" fill="none" xmlns="http://www.w3.org/2000/svg">
<rect width="52" height="48" fill="white"/>
<rect x="10" y="8" width="32" height="32" rx="16" fill="#6046E1"/>
<path d="M23.0833 18.5834C23.0833 16.9726 24.3892 15.6667 26 15.6667C27.6108 15.6667 28.9167 16.9726 28.9167 18.5834V23.5834C28.9167 25.1942 27.6108 26.5001 26 26.5001C24.3892 26.5001 23.0833 25.1942 23.0833 23.5834V18.5834Z" fill="#6046E1"/>
<path fill-rule="evenodd" clip-rule="evenodd" d="M21 23.5833V23.9999C21 26.7613 23.2386 28.9999 26 28.9999C28.7614 28.9999 31 26.7613 31 23.9999V23.5833H31.8333V23.9999C31.8333 27.2216 29.2217 29.8333 26 29.8333C22.7783 29.8333 20.1667 27.2216 20.1667 23.9999V23.5833H21Z" fill="#6046E1"/>
<path d="M25.1667 29H26.8333V32.3333H25.1667V29Z" fill="#6046E1"/>
<path d="M21.875 32.0625C21.5675 32.0625 21.3125 31.8075 21.3125 31.5V26.25C21.3125 25.9425 21.5675 25.6875 21.875 25.6875C22.1825 25.6875 22.4375 25.9425 22.4375 26.25V31.5C22.4375 31.8075 22.1825 32.0625 21.875 32.0625Z" fill="white"/>
<path d="M21.875 19.3125C21.5675 19.3125 21.3125 19.0575 21.3125 18.75V16.5C21.3125 16.1925 21.5675 15.9375 21.875 15.9375C22.1825 15.9375 22.4375 16.1925 22.4375 16.5V18.75C22.4375 19.0575 22.1825 19.3125 21.875 19.3125Z" fill="white"/>
<path d="M30.125 32.0625C29.8175 32.0625 29.5625 31.8075 29.5625 31.5V29.25C29.5625 28.9425 29.8175 28.6875 30.125 28.6875C30.4325 28.6875 30.6875 28.9425 30.6875 29.25V31.5C30.6875 31.8075 30.4325 32.0625 30.125 32.0625Z" fill="white"/>
<path d="M30.125 22.3125C29.8175 22.3125 29.5625 22.0575 29.5625 21.75V16.5C29.5625 16.1925 29.8175 15.9375 30.125 15.9375C30.4325 15.9375 30.6875 16.1925 30.6875 16.5V21.75C30.6875 22.0575 30.4325 22.3125 30.125 22.3125Z" fill="white"/>
<path d="M22.625 26.8125H21.125C19.835 26.8125 19.0625 26.04 19.0625 24.75V20.25C19.0625 18.96 19.835 18.1875 21.125 18.1875H22.625C23.915 18.1875 24.6875 18.96 24.6875 20.25V24.75C24.6875 26.04 23.915 26.8125 22.625 26.8125ZM21.125 19.3125C20.4575 19.3125 20.1875 19.5825 20.1875 20.25V24.75C20.1875 25.4175 20.4575 25.6875 21.125 25.6875H22.625C23.2925 25.6875 23.5625 25.4175 23.5625 24.75V20.25C23.5625 19.5825 23.2925 19.3125 22.625 19.3125H21.125Z" fill="white"/>
<path d="M30.875 29.8125H29.375C28.085 29.8125 27.3125 29.04 27.3125 27.75V23.25C27.3125 21.96 28.085 21.1875 29.375 21.1875H30.875C32.165 21.1875 32.9375 21.96 32.9375 23.25V27.75C32.9375 29.04 32.165 29.8125 30.875 29.8125ZM29.375 22.3125C28.7075 22.3125 28.4375 22.5825 28.4375 23.25V27.75C28.4375 28.4175 28.7075 28.6875 29.375 28.6875H30.875C31.5425 28.6875 31.8125 28.4175 31.8125 27.75V23.25C31.8125 22.5825 31.5425 22.3125 30.875 22.3125H29.375Z" fill="white"/>
</svg>
