<svg width="21" height="20" viewBox="0 0 21 20" fill="none" xmlns="http://www.w3.org/2000/svg">
<path d="M8.54267 1.15016L8.54306 1.14985C9.6273 0.279042 11.3675 0.284136 12.468 1.16073C12.4681 1.16084 12.4682 1.16094 12.4684 1.16105L19.014 6.39756C19.0146 6.39802 19.0152 6.39849 19.0157 6.39895C19.393 6.70711 19.7196 7.18942 19.9304 7.74099C20.141 8.29218 20.2196 8.86987 20.1462 9.35096L18.8873 16.8845C18.8872 16.885 18.8872 16.8855 18.8871 16.8859C18.6374 18.3188 17.2432 19.5 15.8 19.5H5.19996C3.73549 19.5 2.3725 18.3476 2.12294 16.8965C2.12288 16.8961 2.12282 16.8958 2.12276 16.8955L0.863126 9.35761L0.862932 9.35646C0.780786 8.8718 0.854516 8.29296 1.06465 7.74192C1.27476 7.19094 1.60548 6.70909 1.9918 6.40086L1.99267 6.40016L8.54267 1.15016ZM10.5 17.25C11.1861 17.25 11.75 16.6862 11.75 16V13C11.75 12.3139 11.1861 11.75 10.5 11.75C9.81382 11.75 9.24996 12.3139 9.24996 13V16C9.24996 16.6862 9.81382 17.25 10.5 17.25Z" stroke="black"/>
</svg>
