<svg width="52" height="48" viewBox="0 0 52 48" fill="none" xmlns="http://www.w3.org/2000/svg">
<rect width="52" height="48" fill="white"/>
<path d="M26 26.1699C23.87 26.1699 22.13 24.4399 22.13 22.2999C22.13 20.1599 23.87 18.4399 26 18.4399C28.13 18.4399 29.87 20.1699 29.87 22.3099C29.87 24.4499 28.13 26.1699 26 26.1699ZM26 19.9399C24.7 19.9399 23.63 20.9999 23.63 22.3099C23.63 23.6199 24.69 24.6799 26 24.6799C27.31 24.6799 28.37 23.6199 28.37 22.3099C28.37 20.9999 27.3 19.9399 26 19.9399Z" fill="#292D32"/>
<path d="M26 34.76C24.52 34.76 23.03 34.2 21.87 33.09C18.92 30.25 15.66 25.72 16.89 20.33C18 15.44 22.27 13.25 26 13.25C26 13.25 26 13.25 26.01 13.25C29.74 13.25 34.01 15.44 35.12 20.34C36.34 25.73 33.08 30.25 30.13 33.09C28.97 34.2 27.48 34.76 26 34.76ZM26 14.75C23.09 14.75 19.35 16.3 18.36 20.66C17.28 25.37 20.24 29.43 22.92 32C24.65 33.67 27.36 33.67 29.09 32C31.76 29.43 34.72 25.37 33.66 20.66C32.66 16.3 28.91 14.75 26 14.75Z" fill="#292D32"/>
</svg>
