<svg width="15" height="15" viewBox="0 0 15 15" fill="none" xmlns="http://www.w3.org/2000/svg">
<path d="M7.49999 8.85615C6.16874 8.85615 5.08124 7.7749 5.08124 6.4374C5.08124 5.0999 6.16874 4.0249 7.49999 4.0249C8.83124 4.0249 9.91874 5.10615 9.91874 6.44365C9.91874 7.78115 8.83124 8.85615 7.49999 8.85615ZM7.49999 4.9624C6.68749 4.9624 6.01874 5.6249 6.01874 6.44365C6.01874 7.2624 6.68124 7.9249 7.49999 7.9249C8.31874 7.9249 8.98124 7.2624 8.98124 6.44365C8.98124 5.6249 8.31249 4.9624 7.49999 4.9624Z" fill="#292D32"/>
<path d="M7.49999 14.225C6.57499 14.225 5.64374 13.875 4.91874 13.1812C3.07499 11.4062 1.03749 8.575 1.80624 5.20625C2.49999 2.15 5.16874 0.78125 7.49999 0.78125C7.49999 0.78125 7.49999 0.78125 7.50624 0.78125C9.83749 0.78125 12.5062 2.15 13.2 5.2125C13.9625 8.58125 11.925 11.4062 10.0812 13.1812C9.35624 13.875 8.42499 14.225 7.49999 14.225ZM7.49999 1.71875C5.68124 1.71875 3.34374 2.6875 2.72499 5.4125C2.04999 8.35625 3.89999 10.8938 5.57499 12.5C6.65624 13.5437 8.34999 13.5437 9.43124 12.5C11.1 10.8938 12.95 8.35625 12.2875 5.4125C11.6625 2.6875 9.31874 1.71875 7.49999 1.71875Z" fill="#292D32"/>
</svg>
