<svg width="70" height="21" viewBox="0 0 70 21" fill="none" xmlns="http://www.w3.org/2000/svg">
<path d="M1.62897 16V4.31012H3.79995V14.163H9.91209V16H1.62897ZM28.027 16.1169C27.281 16.1169 26.563 16.0223 25.8727 15.833C25.1936 15.6326 24.6536 15.3932 24.2528 15.1149L25.0544 13.5284C25.4552 13.7845 25.9339 13.996 26.4906 14.163C27.0473 14.33 27.6039 14.4135 28.1606 14.4135C28.8174 14.4135 29.2906 14.3244 29.5801 14.1463C29.8807 13.9682 30.031 13.7288 30.031 13.4282C30.031 13.1833 29.9308 12.9996 29.7304 12.8771C29.53 12.7435 29.2683 12.6433 28.9455 12.5765C28.6226 12.5097 28.2608 12.4485 27.86 12.3928C27.4703 12.3372 27.0751 12.2648 26.6743 12.1757C26.2846 12.0755 25.9284 11.9364 25.6055 11.7582C25.2826 11.569 25.021 11.3185 24.8206 11.0067C24.6202 10.695 24.52 10.2831 24.52 9.77096C24.52 9.20317 24.6814 8.71331 25.0043 8.30138C25.3272 7.87831 25.7781 7.55545 26.357 7.33279C26.9471 7.09899 27.6429 6.98209 28.4445 6.98209C29.0457 6.98209 29.6524 7.04889 30.2648 7.18249C30.8771 7.31609 31.3836 7.50535 31.7844 7.75028L30.9828 9.33677C30.5598 9.0807 30.1312 8.90814 29.697 8.81907C29.2739 8.71887 28.8508 8.66877 28.4278 8.66877C27.7932 8.66877 27.32 8.76341 27.0083 8.95267C26.7077 9.14193 26.5574 9.3813 26.5574 9.67076C26.5574 9.93796 26.6576 10.1384 26.858 10.272C27.0584 10.4056 27.32 10.5113 27.6429 10.5893C27.9657 10.6672 28.322 10.734 28.7117 10.7897C29.1125 10.8342 29.5077 10.9066 29.8974 11.0067C30.287 11.1069 30.6433 11.2461 30.9661 11.4242C31.3001 11.5912 31.5673 11.8306 31.7677 12.1423C31.9681 12.4541 32.0683 12.8604 32.0683 13.3614C32.0683 13.9181 31.9013 14.4024 31.5673 14.8143C31.2445 15.2262 30.7824 15.5491 30.1813 15.7829C29.5801 16.0056 28.862 16.1169 28.027 16.1169ZM37.2227 16.1169C36.243 16.1169 35.4859 15.8664 34.9515 15.3654C34.4171 14.8533 34.1499 14.1018 34.1499 13.1109V5.11171H36.2374V13.0608C36.2374 13.4839 36.3432 13.8123 36.5547 14.0461C36.7774 14.2799 37.0835 14.3968 37.4732 14.3968C37.9408 14.3968 38.3305 14.2744 38.6422 14.0294L39.2267 15.5157C38.9818 15.7161 38.6812 15.8664 38.3249 15.9666C37.9686 16.0668 37.6012 16.1169 37.2227 16.1169ZM32.6804 8.81907V7.14909H38.6255V8.81907H32.6804Z" fill="#6046E1"/>
<path d="M46.6051 16.167C45.6922 16.167 44.8517 16.0223 44.0835 15.7328C43.3264 15.4322 42.664 15.0147 42.0962 14.4803C41.5284 13.9348 41.0886 13.2946 40.7769 12.5598C40.4652 11.825 40.3093 11.0234 40.3093 10.1551C40.3093 9.28667 40.4652 8.48507 40.7769 7.75028C41.0886 7.01549 41.5284 6.3809 42.0962 5.8465C42.6751 5.30097 43.3487 4.88348 44.1169 4.59401C44.8851 4.29342 45.7256 4.14312 46.6385 4.14312C47.6294 4.14312 48.5201 4.30455 49.3105 4.62741C50.1121 4.95028 50.7857 5.42344 51.3312 6.0469L49.9618 7.38289C49.5054 6.92642 49.0099 6.59243 48.4755 6.3809C47.9523 6.15823 47.3733 6.0469 46.7387 6.0469C46.1264 6.0469 45.5586 6.1471 45.0354 6.3475C44.5121 6.54789 44.0612 6.83179 43.6827 7.19919C43.3041 7.56658 43.0091 8.00078 42.7976 8.50177C42.5972 9.00277 42.497 9.55386 42.497 10.1551C42.497 10.7451 42.5972 11.2906 42.7976 11.7916C43.0091 12.2926 43.3041 12.7324 43.6827 13.1109C44.0612 13.4783 44.5065 13.7622 45.0187 13.9626C45.5308 14.163 46.0986 14.2632 46.722 14.2632C47.301 14.2632 47.8576 14.1742 48.392 13.996C48.9376 13.8068 49.4553 13.495 49.9451 13.0608L51.1809 14.6807C50.5686 15.1706 49.856 15.5435 49.0433 15.7996C48.2417 16.0445 47.429 16.167 46.6051 16.167ZM49.1268 14.3968V10.0215H51.1809V14.6807L49.1268 14.3968ZM58.0355 16.1169C57.0447 16.1169 56.1763 15.9221 55.4304 15.5324C54.6956 15.1316 54.1222 14.5861 53.7103 13.8958C53.3095 13.2056 53.1091 12.4207 53.1091 11.5411C53.1091 10.6505 53.3039 9.86559 53.6936 9.18647C54.0944 8.49621 54.6399 7.95625 55.3302 7.56658C56.0315 7.17692 56.8276 6.98209 57.7182 6.98209C58.5866 6.98209 59.3604 7.17135 60.0395 7.54988C60.7186 7.92841 61.253 8.46281 61.6427 9.15307C62.0324 9.84333 62.2272 10.6561 62.2272 11.5912C62.2272 11.6803 62.2216 11.7805 62.2105 11.8918C62.2105 12.0032 62.2049 12.1089 62.1938 12.2091H54.7624V10.8231H61.0916L60.2733 11.2572C60.2844 10.7451 60.1787 10.2942 59.956 9.90456C59.7333 9.5149 59.4272 9.20873 59.0375 8.98607C58.659 8.76341 58.2192 8.65207 57.7182 8.65207C57.2061 8.65207 56.7552 8.76341 56.3655 8.98607C55.987 9.20873 55.6864 9.52046 55.4638 9.92126C55.2522 10.3109 55.1465 10.773 55.1465 11.3073V11.6413C55.1465 12.1757 55.2689 12.6489 55.5139 13.0608C55.7588 13.4728 56.1039 13.7901 56.5492 14.0127C56.9946 14.2354 57.5067 14.3467 58.0856 14.3467C58.5866 14.3467 59.0375 14.2688 59.4383 14.1129C59.8391 13.9571 60.1954 13.7121 60.5071 13.3781L61.626 14.664C61.2252 15.1316 60.7186 15.4934 60.1063 15.7495C59.5051 15.9944 58.8149 16.1169 58.0355 16.1169ZM67.589 16.1169C66.6093 16.1169 65.8522 15.8664 65.3178 15.3654C64.7834 14.8533 64.5162 14.1018 64.5162 13.1109V5.11171H66.6037V13.0608C66.6037 13.4839 66.7095 13.8123 66.921 14.0461C67.1437 14.2799 67.4498 14.3968 67.8395 14.3968C68.3071 14.3968 68.6968 14.2744 69.0085 14.0294L69.593 15.5157C69.3481 15.7161 69.0475 15.8664 68.6912 15.9666C68.3349 16.0668 67.9675 16.1169 67.589 16.1169ZM63.0467 8.81907V7.14909H68.9918V8.81907H63.0467Z" fill="#FF8A00"/>
<circle cx="17.2217" cy="12.003" r="4.95776" stroke="#6046E1" stroke-width="1.56561"/>
<path d="M20.3529 12.003C20.3529 10.2737 18.951 8.87183 17.2217 8.87183" stroke="#6046E1" stroke-width="0.782805" stroke-linecap="round"/>
<path d="M13.8296 15.9172L10.9593 18.7875" stroke="#6046E1" stroke-width="1.82654" stroke-linecap="round"/>
</svg>
