<?xml version="1.0" encoding="iso-8859-1"?>
<!-- Uploaded to: SVG Repo, www.svgrepo.com, Generator: SVG Repo Mixer Tools -->
<svg version="1.1" id="Layer_1" xmlns="http://www.w3.org/2000/svg" xmlns:xlink="http://www.w3.org/1999/xlink" 
	 viewBox="0 0 512 512" xml:space="preserve">
<path style="fill:#EDEDED;" d="M511.791,168.272l-6.113,8.878c-0.887,1.283-22.19,31.86-63.471,62.417
	c-38.078,28.188-101.225,61.791-185.78,61.791h-0.532c-84.283-0.146-147.493-33.644-185.707-61.76
	c-41.51-30.546-63.053-61.092-63.95-62.375L0,168.272l6.239-8.951c0.897-1.283,22.44-31.829,63.95-62.375
	c38.214-28.115,101.424-61.624,185.707-61.77h0.532c84.554,0,147.702,33.613,185.78,61.801
	c41.281,30.556,62.584,61.134,63.471,62.417L511.791,168.272z"/>
<path style="fill:#D9D8DB;" d="M511.791,168.272l-6.113,8.878c-0.887,1.283-22.19,31.86-63.471,62.417
	c-38.078,28.188-101.225,61.791-185.78,61.791h-0.532V35.176h0.532c84.554,0,147.702,33.613,185.78,61.801
	c41.281,30.556,62.584,61.134,63.471,62.417L511.791,168.272z"/>
<polygon style="fill:#FD7052;" points="512,476.824 414.851,476.824 414.851,408.423 408.367,408.423 399.163,408.41 0.46,408.026 
	40.078,387.579 124.275,344.109 133.648,339.282 165.388,339.282 393.118,339.296 512,339.296 "/>
<polygon style="fill:#FF4F18;" points="512,476.824 133.633,476.824 124.036,471.873 40.078,428.554 0.404,408.066 0.46,408.026 
	399.163,408.41 408.367,408.423 414.851,408.423 430.551,408.437 450.649,408.45 512,408.506 "/>
<rect x="414.854" y="339.292" style="fill:#67BFFF;" width="97.146" height="137.53"/>
<polygon style="fill:#0088FF;" points="512,476.824 414.851,476.824 414.851,408.423 430.551,408.437 450.649,408.45 512,408.506 
	"/>
<polygon style="fill:#FFDBA8;" points="133.642,476.823 133.631,476.823 124.028,471.877 40.081,428.549 0.404,408.061 
	0.456,408.031 40.081,387.573 124.28,344.113 133.642,339.289 "/>
<polygon style="fill:#FFC473;" points="133.642,476.823 133.631,476.823 124.028,471.877 40.081,428.549 0.404,408.061 
	0.456,408.031 133.642,408.153 "/>
<rect x="408.553" y="339.292" style="fill:#FFFFFF;" width="32.726" height="137.53"/>
<polygon style="fill:#57555C;" points="40.077,428.544 0.404,408.061 0.452,408.033 40.077,387.577 "/>
<polygon style="fill:#3C3A41;" points="40.077,408.071 40.077,428.544 0.404,408.061 0.452,408.033 "/>
<polygon style="fill:#D9D8DB;" points="441.279,476.823 408.553,476.823 408.553,408.533 413.571,408.533 423.781,408.546 
	441.279,408.573 "/>
<path style="fill:#57555C;" d="M381.408,168.293c0,69.313-56.199,125.512-125.512,125.512c-69.323,0-125.512-56.199-125.512-125.512
	c0-69.323,56.189-125.512,125.512-125.512C325.208,42.781,381.408,98.97,381.408,168.293z"/>
<path style="fill:#3C3A41;" d="M381.408,168.293c0,69.313-56.199,125.512-125.512,125.512V42.781
	C325.208,42.781,381.408,98.97,381.408,168.293z"/>
<path style="fill:#F4F4F4;" d="M293.682,168.293c0,20.865-16.921,37.786-37.786,37.786c-20.875,0-37.786-16.921-37.786-37.786
	c0-20.875,16.911-37.786,37.786-37.786C276.76,130.507,293.682,147.418,293.682,168.293z"/>
<path style="fill:#D9D8DB;" d="M293.682,168.293c0,20.865-16.921,37.786-37.786,37.786v-75.572
	C276.76,130.507,293.682,147.418,293.682,168.293z"/>
</svg>