<svg width="25" height="24" viewBox="0 0 25 24" fill="none" xmlns="http://www.w3.org/2000/svg">
<rect x="3" y="11" width="19" height="11" rx="2" fill="#353739"/>
<path d="M18.79 22.75H6.20995C2.80995 22.75 2.62995 20.88 2.47995 19.37L2.07995 14.36C1.98995 13.39 2.26995 12.42 2.88995 11.64C3.62995 10.74 4.67995 10.25 5.80995 10.25H19.19C20.3 10.25 21.35 10.74 22.0599 11.59L22.2299 11.82C22.77 12.56 23.01 13.46 22.92 14.37L22.52 19.36C22.37 20.88 22.19 22.75 18.79 22.75ZM5.80995 11.75C5.13995 11.75 4.49995 12.05 4.07995 12.57L4.00995 12.64C3.68995 13.05 3.51995 13.63 3.57995 14.23L3.97995 19.24C4.11995 20.7 4.17995 21.25 6.20995 21.25H18.79C20.83 21.25 20.88 20.7 21.02 19.23L21.42 14.22C21.4799 13.63 21.3099 13.04 20.92 12.58L20.82 12.46C20.3699 11.99 19.8 11.75 19.18 11.75H5.80995Z" fill="#353739"/>
<path d="M21 12.22C20.59 12.22 20.25 11.88 20.25 11.47V9.68003C20.25 6.70003 19.73 6.18003 16.75 6.18003H14.2C13.07 6.18003 12.68 5.78003 12.25 5.21003L10.96 3.50003C10.52 2.92003 10.42 2.78003 9.52 2.78003H8.25C5.27 2.78003 4.75 3.30003 4.75 6.28003V11.43C4.75 11.84 4.41 12.18 4 12.18C3.59 12.18 3.25 11.84 3.25 11.43V6.28003C3.25 2.45003 4.42 1.28003 8.25 1.28003H9.53C11.07 1.28003 11.55 1.78003 12.17 2.60003L13.45 4.30003C13.72 4.66003 13.74 4.68003 14.21 4.68003H16.76C20.59 4.68003 21.76 5.85003 21.76 9.68003V11.47C21.75 11.88 21.41 12.22 21 12.22Z" fill="#353739"/>
<path d="M15.0701 17.75H9.93005C9.52005 17.75 9.18005 17.41 9.18005 17C9.18005 16.59 9.52005 16.25 9.93005 16.25H15.0701C15.4801 16.25 15.8201 16.59 15.8201 17C15.8201 17.41 15.4901 17.75 15.0701 17.75Z" fill="white"/>
</svg>
