<svg width="18" height="22" viewBox="0 0 18 22" fill="none" xmlns="http://www.w3.org/2000/svg">
<path d="M9.02 19.5299C6.69 19.5299 4.36 19.1599 2.15 18.4199C1.31 18.1299 0.669999 17.5399 0.389999 16.7699C0.0999988 15.9999 0.199999 15.1499 0.659999 14.3899L1.81 12.4799C2.05 12.0799 2.27 11.2799 2.27 10.8099V7.91992C2.27 4.19992 5.3 1.16992 9.02 1.16992C12.74 1.16992 15.77 4.19992 15.77 7.91992V10.8099C15.77 11.2699 15.99 12.0799 16.23 12.4899L17.37 14.3899C17.8 15.1099 17.88 15.9799 17.59 16.7699C17.3 17.5599 16.67 18.1599 15.88 18.4199C13.68 19.1599 11.35 19.5299 9.02 19.5299ZM9.02 2.66992C6.13 2.66992 3.77 5.01992 3.77 7.91992V10.8099C3.77 11.5399 3.47 12.6199 3.1 13.2499L1.95 15.1599C1.73 15.5299 1.67 15.9199 1.8 16.2499C1.92 16.5899 2.22 16.8499 2.63 16.9899C6.81 18.3899 11.24 18.3899 15.42 16.9899C15.78 16.8699 16.06 16.5999 16.19 16.2399C16.32 15.8799 16.29 15.4899 16.09 15.1599L14.94 13.2499C14.56 12.5999 14.27 11.5299 14.27 10.7999V7.91992C14.27 5.01992 11.92 2.66992 9.02 2.66992Z" fill="#292D32"/>
<path d="M10.88 2.93993C10.81 2.93993 10.74 2.92993 10.67 2.90993C10.38 2.82993 10.1 2.76993 9.83 2.72993C8.98 2.61993 8.16 2.67993 7.39 2.90993C7.11 2.99993 6.81 2.90993 6.62 2.69993C6.43 2.48993 6.37 2.18993 6.48 1.91993C6.89 0.869932 7.89 0.179932 9.03 0.179932C10.17 0.179932 11.17 0.859932 11.58 1.91993C11.68 2.18993 11.63 2.48993 11.44 2.69993C11.29 2.85993 11.08 2.93993 10.88 2.93993Z" fill="#292D32"/>
<path d="M9.02 21.8101C8.03 21.8101 7.07 21.4101 6.37 20.7101C5.67 20.0101 5.27 19.0501 5.27 18.0601H6.77C6.77 18.6501 7.01 19.2301 7.43 19.6501C7.85 20.0701 8.43 20.3101 9.02 20.3101C10.26 20.3101 11.27 19.3001 11.27 18.0601H12.77C12.77 20.1301 11.09 21.8101 9.02 21.8101Z" fill="#292D32"/>
</svg>
