<svg width="130" height="130" viewBox="0 0 130 130" fill="none" xmlns="http://www.w3.org/2000/svg">
<path d="M59 3.4641C62.7128 1.32051 67.2872 1.32051 71 3.4641L115.292 29.0359C119.004 31.1795 121.292 35.141 121.292 39.4282V90.5718C121.292 94.859 119.004 98.8205 115.292 100.964L71 126.536C67.2872 128.679 62.7128 128.679 59 126.536L14.7083 100.964C10.9955 98.8205 8.70835 94.859 8.70835 90.5718V39.4282C8.70835 35.141 10.9955 31.1795 14.7083 29.0359L59 3.4641Z" fill="#161B21"/>
<rect width="72" height="72" transform="translate(29 29)" fill="#161B21"/>
<path d="M65 32.9375C56.4995 32.9472 48.3498 36.3283 42.3391 42.3391C36.3283 48.3498 32.9472 56.4995 32.9375 65C34.6989 107.535 95.3076 107.523 97.0626 64.9997C97.0528 56.4992 93.6717 48.3497 87.6609 42.3389C81.6501 36.3282 73.5005 32.9471 65 32.9375ZM65 93.6875C57.3943 93.6788 50.1025 90.6536 44.7245 85.2755C39.3464 79.8975 36.3212 72.6057 36.3125 65C37.8886 26.9422 92.1171 26.9532 93.6876 65.0002C93.6788 72.6059 90.6536 79.8976 85.2755 85.2756C79.8974 90.6536 72.6057 93.6788 65 93.6875Z" fill="#049C6B"/>
<path d="M77.3071 53.3069L62.0004 68.6136L54.9433 61.5571C54.6253 61.2482 54.1985 61.0769 53.7552 61.0801C53.312 61.0834 52.8878 61.2609 52.5743 61.5744C52.2609 61.8878 52.0833 62.3121 52.0801 62.7553C52.0769 63.1986 52.2482 63.6254 52.5571 63.9433L60.8073 72.1934C61.125 72.5075 61.5537 72.6837 62.0005 72.6837C62.4472 72.6837 62.8759 72.5075 63.1936 72.1934L79.6933 55.6931C80.0015 55.3749 80.1722 54.9484 80.1686 54.5055C80.1651 54.0627 79.9876 53.6389 79.6744 53.3258C79.3612 53.0126 78.9375 52.8351 78.4946 52.8316C78.0517 52.8281 77.6252 52.9988 77.3071 53.3069Z" fill="#049C6B"/>
</svg>
