<svg width="16" height="16" viewBox="0 0 16 16" fill="none" xmlns="http://www.w3.org/2000/svg">
<path d="M8.10667 7.24671C8.04001 7.24004 7.96001 7.24004 7.88668 7.24671C6.30001 7.19337 5.04001 5.89337 5.04001 4.29337C5.04001 2.66004 6.36001 1.33337 8.00001 1.33337C9.63334 1.33337 10.96 2.66004 10.96 4.29337C10.9533 5.89337 9.69334 7.19337 8.10667 7.24671Z" stroke="#667085" stroke-width="1.5" stroke-linecap="round" stroke-linejoin="round"/>
<path d="M4.77332 9.70663C3.15999 10.7866 3.15999 12.5466 4.77332 13.62C6.60666 14.8466 9.61332 14.8466 11.4467 13.62C13.06 12.54 13.06 10.78 11.4467 9.70663C9.61999 8.48663 6.61332 8.48663 4.77332 9.70663Z" stroke="#667085" stroke-width="1.5" stroke-linecap="round" stroke-linejoin="round"/>
</svg>
