<svg width="18" height="18" viewBox="0 0 18 18" fill="none" xmlns="http://www.w3.org/2000/svg">
<path d="M0.666664 7.12508C0.324997 7.12508 0.0416641 6.84175 0.0416641 6.50008V4.41675C0.0416641 2.00008 2.00833 0.041748 4.41666 0.041748H6.5C6.84166 0.041748 7.125 0.325081 7.125 0.666748C7.125 1.00841 6.84166 1.29175 6.5 1.29175H4.41666C2.69166 1.29175 1.29166 2.69175 1.29166 4.41675V6.50008C1.29166 6.84175 1.00833 7.12508 0.666664 7.12508Z" fill="#292D32"/>
<path d="M17.3333 7.12508C16.9917 7.12508 16.7083 6.84175 16.7083 6.50008V4.41675C16.7083 2.69175 15.3083 1.29175 13.5833 1.29175H11.5C11.1583 1.29175 10.875 1.00841 10.875 0.666748C10.875 0.325081 11.1583 0.041748 11.5 0.041748H13.5833C15.9917 0.041748 17.9583 2.00008 17.9583 4.41675V6.50008C17.9583 6.84175 17.675 7.12508 17.3333 7.12508Z" fill="#292D32"/>
<path d="M13.5833 17.9583H12.3333C11.9917 17.9583 11.7083 17.6749 11.7083 17.3333C11.7083 16.9916 11.9917 16.7083 12.3333 16.7083H13.5833C15.3083 16.7083 16.7083 15.3083 16.7083 13.5833V12.3333C16.7083 11.9916 16.9917 11.7083 17.3333 11.7083C17.675 11.7083 17.9583 11.9916 17.9583 12.3333V13.5833C17.9583 15.9999 15.9917 17.9583 13.5833 17.9583Z" fill="#292D32"/>
<path d="M6.5 17.9583H4.41666C2.00833 17.9583 0.0416641 16 0.0416641 13.5833V11.5C0.0416641 11.1583 0.324997 10.875 0.666664 10.875C1.00833 10.875 1.29166 11.1583 1.29166 11.5V13.5833C1.29166 15.3083 2.69166 16.7083 4.41666 16.7083H6.5C6.84166 16.7083 7.125 16.9917 7.125 17.3333C7.125 17.675 6.84166 17.9583 6.5 17.9583Z" fill="#292D32"/>
<path d="M6.5 8.37492H4.83334C3.65834 8.37492 2.95834 7.67492 2.95834 6.49992V4.83325C2.95834 3.65825 3.65834 2.95825 4.83334 2.95825H6.5C7.675 2.95825 8.375 3.65825 8.375 4.83325V6.49992C8.375 7.67492 7.675 8.37492 6.5 8.37492ZM4.83334 4.20825C4.34167 4.20825 4.20834 4.34159 4.20834 4.83325V6.49992C4.20834 6.99159 4.34167 7.12492 4.83334 7.12492H6.5C6.99167 7.12492 7.125 6.99159 7.125 6.49992V4.83325C7.125 4.34159 6.99167 4.20825 6.5 4.20825H4.83334Z" fill="#292D32"/>
<path d="M13.1667 8.37492H11.5C10.325 8.37492 9.625 7.67492 9.625 6.49992V4.83325C9.625 3.65825 10.325 2.95825 11.5 2.95825H13.1667C14.3417 2.95825 15.0417 3.65825 15.0417 4.83325V6.49992C15.0417 7.67492 14.3417 8.37492 13.1667 8.37492ZM11.5 4.20825C11.0083 4.20825 10.875 4.34159 10.875 4.83325V6.49992C10.875 6.99159 11.0083 7.12492 11.5 7.12492H13.1667C13.6583 7.12492 13.7917 6.99159 13.7917 6.49992V4.83325C13.7917 4.34159 13.6583 4.20825 13.1667 4.20825H11.5Z" fill="#292D32"/>
<path d="M6.5 15.0417H4.83334C3.65834 15.0417 2.95834 14.3417 2.95834 13.1667V11.5C2.95834 10.325 3.65834 9.625 4.83334 9.625H6.5C7.675 9.625 8.375 10.325 8.375 11.5V13.1667C8.375 14.3417 7.675 15.0417 6.5 15.0417ZM4.83334 10.875C4.34167 10.875 4.20834 11.0083 4.20834 11.5V13.1667C4.20834 13.6583 4.34167 13.7917 4.83334 13.7917H6.5C6.99167 13.7917 7.125 13.6583 7.125 13.1667V11.5C7.125 11.0083 6.99167 10.875 6.5 10.875H4.83334Z" fill="#292D32"/>
<path d="M13.1667 15.0417H11.5C10.325 15.0417 9.625 14.3417 9.625 13.1667V11.5C9.625 10.325 10.325 9.625 11.5 9.625H13.1667C14.3417 9.625 15.0417 10.325 15.0417 11.5V13.1667C15.0417 14.3417 14.3417 15.0417 13.1667 15.0417ZM11.5 10.875C11.0083 10.875 10.875 11.0083 10.875 11.5V13.1667C10.875 13.6583 11.0083 13.7917 11.5 13.7917H13.1667C13.6583 13.7917 13.7917 13.6583 13.7917 13.1667V11.5C13.7917 11.0083 13.6583 10.875 13.1667 10.875H11.5Z" fill="#292D32"/>
</svg>
