<svg width="134" height="40" viewBox="0 0 134 40" fill="none" xmlns="http://www.w3.org/2000/svg">
<path d="M3.05488 31V8.6H7.21488V27.48H18.9269V31H3.05488ZM53.6384 31.224C52.209 31.224 50.833 31.0427 49.5104 30.68C48.209 30.296 47.1744 29.8373 46.4064 29.304L47.9424 26.264C48.7104 26.7547 49.6277 27.16 50.6944 27.48C51.761 27.8 52.8277 27.96 53.8944 27.96C55.153 27.96 56.0597 27.7893 56.6144 27.448C57.1904 27.1067 57.4784 26.648 57.4784 26.072C57.4784 25.6027 57.2864 25.2507 56.9024 25.016C56.5184 24.76 56.017 24.568 55.3984 24.44C54.7797 24.312 54.0864 24.1947 53.3184 24.088C52.5717 23.9813 51.8144 23.8427 51.0464 23.672C50.2997 23.48 49.617 23.2133 48.9984 22.872C48.3797 22.5093 47.8784 22.0293 47.4944 21.432C47.1104 20.8347 46.9184 20.0453 46.9184 19.064C46.9184 17.976 47.2277 17.0373 47.8464 16.248C48.465 15.4373 49.329 14.8187 50.4384 14.392C51.569 13.944 52.9024 13.72 54.4384 13.72C55.5904 13.72 56.753 13.848 57.9264 14.104C59.0997 14.36 60.0704 14.7227 60.8384 15.192L59.3024 18.232C58.4917 17.7413 57.6704 17.4107 56.8384 17.24C56.0277 17.048 55.217 16.952 54.4064 16.952C53.1904 16.952 52.2837 17.1333 51.6864 17.496C51.1104 17.8587 50.8224 18.3173 50.8224 18.872C50.8224 19.384 51.0144 19.768 51.3984 20.024C51.7824 20.28 52.2837 20.4827 52.9024 20.632C53.521 20.7813 54.2037 20.9093 54.9504 21.016C55.7184 21.1013 56.4757 21.24 57.2224 21.432C57.969 21.624 58.6517 21.8907 59.2704 22.232C59.9104 22.552 60.4224 23.0107 60.8064 23.608C61.1904 24.2053 61.3824 24.984 61.3824 25.944C61.3824 27.0107 61.0624 27.9387 60.4224 28.728C59.8037 29.5173 58.9184 30.136 57.7664 30.584C56.6144 31.0107 55.2384 31.224 53.6384 31.224ZM71.2591 31.224C69.3818 31.224 67.9311 30.744 66.9071 29.784C65.8831 28.8027 65.3711 27.3627 65.3711 25.464V10.136H69.3711V25.368C69.3711 26.1787 69.5738 26.808 69.9791 27.256C70.4058 27.704 70.9925 27.928 71.7391 27.928C72.6351 27.928 73.3818 27.6933 73.9791 27.224L75.0991 30.072C74.6298 30.456 74.0538 30.744 73.3711 30.936C72.6885 31.128 71.9845 31.224 71.2591 31.224ZM62.5551 17.24V14.04H73.9471V17.24H62.5551ZM89.2376 31.32C87.4883 31.32 85.8776 31.0427 84.4056 30.488C82.955 29.912 81.6856 29.112 80.5976 28.088C79.5096 27.0427 78.667 25.816 78.0696 24.408C77.4723 23 77.1736 21.464 77.1736 19.8C77.1736 18.136 77.4723 16.6 78.0696 15.192C78.667 13.784 79.5096 12.568 80.5976 11.544C81.707 10.4987 82.9976 9.69867 84.4696 9.144C85.9416 8.568 87.5523 8.28 89.3016 8.28C91.2003 8.28 92.907 8.58933 94.4216 9.208C95.9576 9.82667 97.2483 10.7333 98.2936 11.928L95.6696 14.488C94.795 13.6133 93.8456 12.9733 92.8216 12.568C91.819 12.1413 90.7096 11.928 89.4936 11.928C88.3203 11.928 87.2323 12.12 86.2296 12.504C85.227 12.888 84.363 13.432 83.6376 14.136C82.9123 14.84 82.347 15.672 81.9416 16.632C81.5576 17.592 81.3656 18.648 81.3656 19.8C81.3656 20.9307 81.5576 21.976 81.9416 22.936C82.347 23.896 82.9123 24.7387 83.6376 25.464C84.363 26.168 85.2163 26.712 86.1976 27.096C87.179 27.48 88.267 27.672 89.4616 27.672C90.571 27.672 91.6376 27.5013 92.6616 27.16C93.707 26.7973 94.699 26.2 95.6376 25.368L98.0056 28.472C96.8323 29.4107 95.467 30.1253 93.9096 30.616C92.3736 31.0853 90.8163 31.32 89.2376 31.32ZM94.0696 27.928V19.544H98.0056V28.472L94.0696 27.928ZM111.14 31.224C109.242 31.224 107.578 30.8507 106.148 30.104C104.74 29.336 103.642 28.2907 102.852 26.968C102.084 25.6453 101.7 24.1413 101.7 22.456C101.7 20.7493 102.074 19.2453 102.82 17.944C103.588 16.6213 104.634 15.5867 105.956 14.84C107.3 14.0933 108.826 13.72 110.532 13.72C112.196 13.72 113.679 14.0827 114.98 14.808C116.282 15.5333 117.306 16.5573 118.052 17.88C118.799 19.2027 119.172 20.76 119.172 22.552C119.172 22.7227 119.162 22.9147 119.14 23.128C119.14 23.3413 119.13 23.544 119.108 23.736H104.868V21.08H116.996L115.428 21.912C115.45 20.9307 115.247 20.0667 114.82 19.32C114.394 18.5733 113.807 17.9867 113.06 17.56C112.335 17.1333 111.492 16.92 110.532 16.92C109.551 16.92 108.687 17.1333 107.94 17.56C107.215 17.9867 106.639 18.584 106.212 19.352C105.807 20.0987 105.604 20.984 105.604 22.008V22.648C105.604 23.672 105.839 24.5787 106.308 25.368C106.778 26.1573 107.439 26.7653 108.292 27.192C109.146 27.6187 110.127 27.832 111.236 27.832C112.196 27.832 113.06 27.6827 113.828 27.384C114.596 27.0853 115.279 26.616 115.876 25.976L118.02 28.44C117.252 29.336 116.282 30.0293 115.108 30.52C113.956 30.9893 112.634 31.224 111.14 31.224ZM129.447 31.224C127.569 31.224 126.119 30.744 125.095 29.784C124.071 28.8027 123.559 27.3627 123.559 25.464V10.136H127.559V25.368C127.559 26.1787 127.761 26.808 128.167 27.256C128.593 27.704 129.18 27.928 129.927 27.928C130.823 27.928 131.569 27.6933 132.167 27.224L133.287 30.072C132.817 30.456 132.241 30.744 131.559 30.936C130.876 31.128 130.172 31.224 129.447 31.224ZM120.743 17.24V14.04H132.135V17.24H120.743Z" fill="white"/>
<circle cx="33" cy="23" r="9.5" stroke="#FF8A00" stroke-width="3"/>
<path d="M39 23C39 19.6863 36.3137 17 33 17" stroke="#FF8A00" stroke-width="1.5" stroke-linecap="round"/>
<path d="M26.5 30.5L21 36" stroke="#FF8A00" stroke-width="3.5" stroke-linecap="round"/>
</svg>
