<?xml version="1.0" encoding="utf-8"?>

<!-- Uploaded to: SVG Repo, www.svgrepo.com, Generator: SVG Repo Mixer Tools -->
<svg height="800px" width="800px" version="1.1" id="Layer_1" xmlns="http://www.w3.org/2000/svg" xmlns:xlink="http://www.w3.org/1999/xlink" 
	 viewBox="0 0 100 100" enable-background="new 0 0 100 100" xml:space="preserve">
<g>
	<path fill="#F0566F" d="M77.855,5.509h-55.71c-5.506,0-9.969,4.463-9.969,9.968v59.901c0,5.505,4.463,9.968,9.969,9.968h55.71
		c5.506,0,9.969-4.463,9.969-9.968V15.477C87.824,9.972,83.361,5.509,77.855,5.509z"/>
	<path fill="#FEE36F" d="M8.893,24.468c-1.871,0-3.387,1.516-3.387,3.387v11.696c0,1.871,1.517,3.387,3.387,3.387h3.283V24.468
		H8.893z"/>
	<path fill="#FEE36F" d="M91.107,24.468c1.871,0,3.387,1.516,3.387,3.387v11.696c0,1.871-1.517,3.387-3.387,3.387h-3.283V24.468
		H91.107z"/>
	<path fill="#DE3D5D" d="M75.006,26.375H25.626c-2.785,0-5.042,2.257-5.042,5.042v26.058c0,2.784,2.257,5.042,5.042,5.042h49.381
		c2.785,0,5.042-2.257,5.042-5.042V31.416C80.049,28.632,77.791,26.375,75.006,26.375z"/>
	<path fill="#6AC9CC" d="M74.69,24.468H25.31c-2.785,0-5.042,2.257-5.042,5.042v26.058c0,2.784,2.257,5.042,5.042,5.042H74.69
		c2.785,0,5.042-2.257,5.042-5.042V29.51C79.732,26.726,77.475,24.468,74.69,24.468z"/>
	<circle fill="#DE3D5D" cx="74.74" cy="73.885" r="4.993"/>
	<circle fill="#DE3D5D" cx="25.26" cy="73.885" r="4.993"/>
	<circle fill="#FFFFFF" cx="74.74" cy="72.748" r="4.993"/>
	<circle fill="#FFFFFF" cx="25.26" cy="72.748" r="4.993"/>
	<path fill="#2E98D5" d="M22.145,85.347v5.603c0,1.956,1.585,3.541,3.541,3.541h5.983c1.956,0,3.541-1.585,3.541-3.541v-5.603
		H22.145z"/>
	<path fill="#2E98D5" d="M66.667,85.347v5.603c0,1.956,1.585,3.541,3.541,3.541h5.983c1.956,0,3.541-1.585,3.541-3.541v-5.603
		H66.667z"/>
	<path fill="#DE3D5D" d="M68.638,19.765H31.362c-1.993,0-3.623-1.63-3.623-3.623v0c0-1.993,1.63-3.623,3.623-3.623h37.275
		c1.993,0,3.623,1.63,3.623,3.623v0C72.261,18.135,70.63,19.765,68.638,19.765z"/>
	<path fill="#FFFFFF" d="M68.638,18.612H31.362c-1.993,0-3.623-1.63-3.623-3.623v0c0-1.993,1.63-3.623,3.623-3.623h37.275
		c1.993,0,3.623,1.63,3.623,3.623v0C72.261,16.981,70.63,18.612,68.638,18.612z"/>
	<g>
		<path fill="#9FDADF" d="M58.042,24.468L22.657,59.85c0.771,0.479,1.678,0.76,2.652,0.76H35.96l36.145-36.142H58.042z"/>
		<path fill="#9FDADF" d="M38.378,24.468L20.268,42.578v12.991c0,0.334,0.034,0.659,0.096,0.975l32.077-32.075H38.378z"/>
	</g>
	<g>
		<path fill="#136296" d="M74.739,67.249c-3.032,0-5.499,2.466-5.499,5.498s2.467,5.498,5.499,5.498
			c3.032,0,5.499-2.466,5.499-5.498S77.771,67.249,74.739,67.249z M74.739,77.235c-2.474,0-4.487-2.013-4.487-4.487
			c0-2.474,2.013-4.487,4.487-4.487c2.474,0,4.487,2.013,4.487,4.487C79.227,75.222,77.214,77.235,74.739,77.235z"/>
		<path fill="#136296" d="M30.759,72.748c0-3.032-2.467-5.498-5.499-5.498s-5.499,2.466-5.499,5.498s2.467,5.498,5.499,5.498
			S30.759,75.779,30.759,72.748z M20.773,72.748c0-2.474,2.013-4.487,4.487-4.487s4.487,2.013,4.487,4.487
			c0,2.474-2.013,4.487-4.487,4.487S20.773,75.222,20.773,72.748z"/>
		<path fill="#136296" d="M80.238,90.95v-5.382c4.63-1.083,8.091-5.235,8.091-10.19V43.445h2.777c2.147,0,3.893-1.746,3.893-3.893
			V27.855c0-2.146-1.746-3.893-3.893-3.893h-2.777v-8.485c0-5.775-4.699-10.474-10.475-10.474h-55.71
			c-5.776,0-10.475,4.699-10.475,10.474v8.485H8.893C6.746,23.963,5,25.709,5,27.855v11.697c0,2.146,1.746,3.893,3.893,3.893h2.778
			v31.934c0,5.605,4.429,10.182,9.969,10.448v5.123c0,1.209,0.536,2.293,1.38,3.035H5.506C5.226,93.985,5,94.212,5,94.491
			s0.226,0.506,0.506,0.506h20.181h5.983h38.539h5.983h18.303c0.279,0,0.506-0.226,0.506-0.506s-0.226-0.506-0.506-0.506H78.859
			C79.702,93.243,80.238,92.159,80.238,90.95z M91.107,24.974c1.589,0,2.882,1.293,2.882,2.882v11.696
			c0,1.589-1.293,2.881-2.882,2.881h-2.777v-17.46H91.107z M8.893,42.433c-1.589,0-2.882-1.293-2.882-2.881V27.855
			c0-1.589,1.293-2.881,2.882-2.881h2.778v17.46H8.893z M12.682,75.379v-32.44V24.468v-8.991c0-5.218,4.245-9.463,9.463-9.463h55.71
			c5.218,0,9.464,4.245,9.464,9.463v8.991v18.471v32.44c0,5.218-4.245,9.463-9.464,9.463H66.667H35.211H22.145
			C16.927,84.841,12.682,80.596,12.682,75.379z M35.716,85.852h30.445v5.098c0,1.209,0.536,2.293,1.38,3.035H34.337
			c0.844-0.742,1.38-1.826,1.38-3.035V85.852z M22.651,90.95v-5.098h12.054v5.098c0,1.674-1.362,3.035-3.036,3.035h-5.983
			C24.013,93.985,22.651,92.624,22.651,90.95z M70.208,93.985c-1.674,0-3.036-1.362-3.036-3.035v-5.098h10.682h1.372v5.098
			c0,1.674-1.362,3.035-3.035,3.035H70.208z"/>
		<path fill="#136296" d="M31.363,19.117h37.275c2.277,0,4.129-1.852,4.129-4.129s-1.852-4.129-4.129-4.129H31.363
			c-2.277,0-4.129,1.852-4.129,4.129S29.086,19.117,31.363,19.117z M31.363,11.871h37.275c1.719,0,3.118,1.398,3.118,3.118
			s-1.399,3.118-3.118,3.118H31.363c-1.719,0-3.118-1.398-3.118-3.118S29.643,11.871,31.363,11.871z"/>
		<path fill="#136296" d="M35.253,74.833h-1.264c-0.279,0-0.506,0.226-0.506,0.506s0.226,0.506,0.506,0.506h1.264
			c0.279,0,0.506-0.226,0.506-0.506S35.532,74.833,35.253,74.833z"/>
		<path fill="#136296" d="M45.978,74.833h-2.681c-0.279,0-0.506,0.226-0.506,0.506s0.226,0.506,0.506,0.506h2.681
			c0.279,0,0.506-0.226,0.506-0.506S46.257,74.833,45.978,74.833z"/>
		<path fill="#136296" d="M40.615,74.833h-2.681c-0.279,0-0.506,0.226-0.506,0.506s0.226,0.506,0.506,0.506h2.681
			c0.279,0,0.506-0.226,0.506-0.506S40.895,74.833,40.615,74.833z"/>
		<path fill="#136296" d="M56.703,74.833h-2.681c-0.279,0-0.506,0.226-0.506,0.506s0.226,0.506,0.506,0.506h2.681
			c0.279,0,0.506-0.226,0.506-0.506S56.982,74.833,56.703,74.833z"/>
		<path fill="#136296" d="M51.341,74.833h-2.681c-0.279,0-0.506,0.226-0.506,0.506s0.226,0.506,0.506,0.506h2.681
			c0.279,0,0.506-0.226,0.506-0.506S51.62,74.833,51.341,74.833z"/>
		<path fill="#136296" d="M62.066,74.833h-2.681c-0.279,0-0.506,0.226-0.506,0.506s0.226,0.506,0.506,0.506h2.681
			c0.279,0,0.506-0.226,0.506-0.506S62.345,74.833,62.066,74.833z"/>
		<path fill="#136296" d="M66.011,74.833h-1.264c-0.279,0-0.506,0.226-0.506,0.506s0.226,0.506,0.506,0.506h1.264
			c0.279,0,0.506-0.226,0.506-0.506S66.29,74.833,66.011,74.833z"/>
		<path fill="#136296" d="M66.011,69.651H33.989c-0.279,0-0.506,0.226-0.506,0.506c0,0.279,0.226,0.506,0.506,0.506h32.022
			c0.279,0,0.506-0.226,0.506-0.506C66.517,69.877,66.29,69.651,66.011,69.651z"/>
		<path fill="#136296" d="M25.31,61.116H74.69c3.059,0,5.548-2.489,5.548-5.548V29.51c0-3.059-2.489-5.547-5.548-5.547H25.31
			c-3.059,0-5.548,2.488-5.548,5.547v26.058C19.762,58.627,22.251,61.116,25.31,61.116z M20.773,29.51
			c0-2.501,2.035-4.536,4.536-4.536H74.69c2.501,0,4.536,2.035,4.536,4.536v26.058c0,2.501-2.035,4.536-4.536,4.536H25.31
			c-2.501,0-4.536-2.035-4.536-4.536V29.51z"/>
	</g>
</g>
</svg>