<svg width="56" height="52" viewBox="0 0 56 52" fill="none" xmlns="http://www.w3.org/2000/svg">
<path fill-rule="evenodd" clip-rule="evenodd" d="M16.3333 33.0836C17.0237 33.0836 17.5833 33.6432 17.5833 34.3336V37.6669C17.5833 37.897 17.7699 38.0836 18 38.0836H38C38.2301 38.0836 38.4167 37.897 38.4167 37.6669V34.3336C38.4167 33.6432 38.9763 33.0836 39.6667 33.0836C40.357 33.0836 40.9167 33.6432 40.9167 34.3336V37.6669C40.9167 39.2778 39.6108 40.5836 38 40.5836H18C16.3892 40.5836 15.0833 39.2778 15.0833 37.6669V34.3336C15.0833 33.6432 15.643 33.0836 16.3333 33.0836Z" fill="#6046E1"/>
<path fill-rule="evenodd" clip-rule="evenodd" d="M25.8964 32.879C25.0391 32.879 24.324 32.2238 24.2491 31.3698C23.993 28.4486 23.9479 25.513 24.1138 22.5859C23.7022 22.5632 23.2907 22.5368 22.8794 22.5069L20.3968 22.3259C19.4397 22.2561 18.9046 21.1888 19.4214 20.3801C21.1914 17.61 23.4722 15.2018 26.1422 13.2839L27.1368 12.5694C27.6526 12.1989 28.3474 12.1989 28.8632 12.5694L29.8578 13.2839C32.5278 15.2018 34.8085 17.61 36.5786 20.3801C37.0954 21.1888 36.5603 22.2561 35.6031 22.3259L33.1206 22.5069C32.7093 22.5368 32.2978 22.5632 31.8862 22.5859C32.0521 25.513 32.0069 28.4486 31.7509 31.3698C31.676 32.2238 30.9609 32.879 30.1036 32.879H25.8964Z" fill="#6046E1"/>
<rect x="0.5" y="0.5" width="55" height="51" rx="4.5" stroke="#6046E1" stroke-dasharray="2 2"/>
</svg>
