<svg width="52" height="52" viewBox="0 0 52 52" fill="none" xmlns="http://www.w3.org/2000/svg">
<rect width="52" height="52" rx="6" fill="#EAE6FF"/>
<path d="M35.8138 25.7755C34.935 25.5442 33.9021 25.4209 32.6688 25.4209C30.9575 25.4209 30.3254 25.8371 29.4467 26.5001C29.4004 26.5309 29.3542 26.5771 29.3079 26.6234L27.8433 28.1805C26.61 29.4755 24.39 29.4909 23.1567 28.1651L21.6921 26.6234C21.6458 26.5771 21.5996 26.5309 21.5533 26.5001C20.6746 25.8371 20.0425 25.4209 18.3313 25.4209C17.0979 25.4209 16.065 25.5442 15.1863 25.7755C11.5171 26.7621 11.5171 29.6759 11.5171 32.2351V33.6688C11.5171 37.5384 11.5171 41.9167 19.765 41.9167H31.235C36.7079 41.9167 39.4829 39.1417 39.4829 33.6688V32.2351C39.4829 29.6759 39.4829 26.7621 35.8138 25.7755ZM29.0921 36.3667H21.9079C21.3221 36.3667 20.8442 35.8888 20.8442 35.2876C20.8442 34.6863 21.3221 34.2084 21.9079 34.2084H29.0921C29.6779 34.2084 30.1558 34.6863 30.1558 35.2876C30.1558 35.8888 29.6779 36.3667 29.0921 36.3667Z" fill="#6046E1"/>
<path d="M26.5329 12.1163C26.5329 11.5459 26.0704 11.0834 25.5 11.0834C24.9296 11.0834 24.4671 11.5459 24.4671 12.1163V14.1667H26.5484V12.1163H26.5329Z" fill="#6046E1"/>
<path d="M36.6154 20.9808V23.6016C36.5537 23.5708 36.4766 23.5554 36.4149 23.54H36.3995C35.3049 23.247 34.087 23.1083 32.6687 23.1083C30.2945 23.1083 29.1691 23.802 28.1516 24.5729C27.9358 24.727 27.7816 24.8812 27.6274 25.0354L26.1629 26.5925C26.0087 26.7466 25.762 26.8391 25.4999 26.8391C25.3766 26.8391 25.0683 26.8237 24.837 26.577L23.3262 24.9891C23.172 24.8195 22.987 24.6808 22.9408 24.65C21.8308 23.802 20.7054 23.1083 18.3312 23.1083C16.9129 23.1083 15.6949 23.247 14.5849 23.54C14.5233 23.5554 14.4462 23.5708 14.3845 23.6016V20.9808C14.3845 17.7895 14.3845 14.1666 21.1987 14.1666H24.467V19.4854L23.4649 18.4833C23.0487 18.067 22.4012 18.067 21.9849 18.4833C21.5841 18.8841 21.5841 19.547 21.9849 19.9479L24.7599 22.7229C24.7754 22.7383 24.7908 22.7383 24.7908 22.7537C24.8833 22.8308 24.9912 22.9079 25.0991 22.9541C25.2379 23.0004 25.3612 23.0312 25.4999 23.0312C25.6387 23.0312 25.762 23.0004 25.9008 22.9541C26.0241 22.9079 26.132 22.8308 26.2399 22.7229L29.0149 19.9479C29.4158 19.547 29.4158 18.8841 29.0149 18.4833C28.5987 18.067 27.9512 18.067 27.5349 18.4833L26.5329 19.4854V14.1666H29.8012C36.6154 14.1666 36.6154 17.7895 36.6154 20.9808Z" fill="#6046E1"/>
</svg>
