<svg width="24" height="24" viewBox="0 0 24 24" fill="none" xmlns="http://www.w3.org/2000/svg">
<path d="M21.06 11.8201L20.9 11.6001C20.62 11.2601 20.29 10.9901 19.91 10.7901C19.4 10.5001 18.82 10.3501 18.22 10.3501H5.77C5.17 10.3501 4.6 10.5001 4.08 10.7901C3.69 11.0001 3.34 11.2901 3.05 11.6501C2.48 12.3801 2.21 13.2801 2.3 14.1801L2.67 18.8501C2.8 20.2601 2.97 22.0001 6.14 22.0001H17.86C21.03 22.0001 21.19 20.2601 21.33 18.8401L21.7 14.1901C21.79 13.3501 21.57 12.5101 21.06 11.8201ZM14.39 17.3401H9.6C9.21 17.3401 8.9 17.0201 8.9 16.6401C8.9 16.2601 9.21 15.9401 9.6 15.9401H14.39C14.78 15.9401 15.09 16.2601 15.09 16.6401C15.09 17.0301 14.78 17.3401 14.39 17.3401Z" fill="#A9ABAD"/>
<path d="M20.5611 8.59643C20.5987 8.97928 20.1834 9.23561 19.8186 9.11348C19.3138 8.94449 18.7825 8.86 18.23 8.86H5.77C5.21316 8.86 4.66491 8.95012 4.15335 9.12194C3.79295 9.24298 3.38 8.99507 3.38 8.61489V6.66C3.38 3.09 4.47 2 8.04 2H9.22001C10.65 2 11.1 2.46 11.68 3.21L12.88 4.81C13.13 5.15 13.14 5.17 13.58 5.17H15.96C19.0857 5.17 20.307 6.00724 20.5611 8.59643Z" fill="#292D32"/>
</svg>
