<svg width="18" height="19" viewBox="0 0 18 19" fill="none" xmlns="http://www.w3.org/2000/svg">
<path d="M5.85925 2.30818H4.48838C2.90829 2.30818 2.07855 3.13791 2.07855 4.7108V6.08166C2.07855 7.65455 2.90828 8.48428 4.48117 8.48428H5.85203C7.42492 8.48428 8.25465 7.65455 8.25465 6.08166V4.7108C8.26187 3.13791 7.43213 2.30818 5.85925 2.30818Z" fill="#CCCCCC"/>
<path d="M14.1061 2.30818H12.7352C11.1623 2.30818 10.3326 3.13791 10.3326 4.7108V6.08166C10.3326 7.65455 11.1623 8.48428 12.7352 8.48428H14.1061C15.6789 8.48428 16.5087 7.65455 16.5087 6.08166V4.7108C16.5087 3.13791 15.6789 2.30818 14.1061 2.30818Z" fill="#CCCCCC"/>
<path d="M14.1061 10.555H12.7352C11.1623 10.555 10.3326 11.3847 10.3326 12.9576V14.3285C10.3326 15.9014 11.1623 16.7311 12.7352 16.7311H14.1061C15.6789 16.7311 16.5087 15.9014 16.5087 14.3285V12.9576C16.5087 11.3847 15.6789 10.555 14.1061 10.555Z" fill="#CCCCCC"/>
<path d="M5.85925 10.555H4.48838C2.90829 10.555 2.07855 11.3847 2.07855 12.9576V14.3285C2.07855 15.9086 2.90828 16.7383 4.48117 16.7383H5.85203C7.42492 16.7383 8.25465 15.9086 8.25465 14.3357V12.9648C8.26187 11.3847 7.43213 10.555 5.85925 10.555Z" fill="#CCCCCC"/>
</svg>
