<svg width="17" height="21" viewBox="0 0 17 21" fill="none" xmlns="http://www.w3.org/2000/svg">
<path d="M10.3586 0.904921L1.11859 10.1449C0.946553 10.317 0.946553 10.5955 1.11859 10.7671L3.57643 13.2249C3.74847 13.397 4.02699 13.397 4.19859 13.2249L15.8964 1.52708C16.1736 1.24988 15.9774 0.776001 15.5854 0.776001H10.6697C10.5531 0.776001 10.4413 0.822201 10.3586 0.904921ZM15.8964 10.3271L8.28751 17.936L5.51859 15.1671C5.34655 14.995 5.34655 14.7165 5.51859 14.5449L10.3586 9.70492C10.4413 9.6222 10.5531 9.576 10.6697 9.576H15.5854C15.9774 9.576 16.1736 10.0499 15.8964 10.3271ZM15.8964 19.3849L12.6875 16.176L8.28751 17.936L10.3586 20.0071C10.4413 20.0898 10.5531 20.136 10.6697 20.136H15.5854C15.9774 20.136 16.1736 19.6621 15.8964 19.3849Z" fill="#00B7FE"/>
</svg>
