<svg width="23" height="17" viewBox="0 0 23 17" fill="none" xmlns="http://www.w3.org/2000/svg">
<path d="M18.9138 4.34601C19.2038 5.09601 19.9238 5.62601 20.7738 5.62601C21.8738 5.62601 22.7738 4.72601 22.7738 3.62601C22.7738 2.52601 21.8738 1.62601 20.7738 1.62601C19.9238 1.62601 19.2038 2.15601 18.9138 2.90601C18.8638 2.89601 18.8238 2.87601 18.7738 2.87601H14.7738V2.12601C14.7738 1.30601 14.0938 0.626007 13.2738 0.626007H10.2738C9.4538 0.626007 8.7738 1.30601 8.7738 2.12601V2.87601H4.7738C4.7238 2.87601 4.6838 2.89601 4.6338 2.90601C4.3438 2.15601 3.6238 1.62601 2.7738 1.62601C1.6738 1.62601 0.773804 2.52601 0.773804 3.62601C0.773804 4.72601 1.6738 5.62601 2.7738 5.62601C3.6238 5.62601 4.3438 5.09601 4.6338 4.34601C4.6838 4.35601 4.7238 4.37601 4.7738 4.37601H7.3438C5.2938 5.89601 4.0238 8.41601 4.0238 11.126C4.0238 11.296 4.0338 11.456 4.0538 11.626H3.7738C2.9438 11.626 2.2738 12.296 2.2738 13.126V15.126C2.2738 15.956 2.9438 16.626 3.7738 16.626H5.7738C5.9938 16.626 6.1938 16.576 6.3838 16.486C6.9038 16.266 7.2738 15.736 7.2738 15.126V13.126C7.2738 12.296 6.6038 11.626 5.7738 11.626H5.5438C5.5438 11.596 5.5538 11.566 5.5538 11.536C5.5338 11.396 5.5338 11.266 5.5338 11.126C5.5338 8.65601 6.8038 6.39601 8.7938 5.22601C8.8338 5.99601 9.4838 6.62601 10.2738 6.62601H13.2738C14.0638 6.62601 14.7138 5.99601 14.7638 5.22601C16.7538 6.39601 18.0238 8.66601 18.0238 11.126C18.0238 11.266 18.0138 11.396 18.0038 11.536C18.0038 11.566 18.0138 11.596 18.0138 11.626H17.7738C16.9438 11.626 16.2738 12.296 16.2738 13.126V15.126C16.2738 15.736 16.6438 16.266 17.1638 16.486C17.3538 16.576 17.5538 16.626 17.7738 16.626H19.7738C20.6038 16.626 21.2738 15.956 21.2738 15.126V13.126C21.2738 12.296 20.6038 11.626 19.7738 11.626H19.4938C19.5138 11.456 19.5238 11.296 19.5238 11.126C19.5238 8.41601 18.2538 5.89601 16.2038 4.37601H18.7738C18.8238 4.37601 18.8638 4.35601 18.9138 4.34601Z" fill="#D042DC"/>
</svg>
